HIERARCHY
ROOT Hips
{
	OFFSET -3.958830 18.904000 13.208200
	CHANNELS 6 Xposition Yposition Zposition Zrotation Yrotation Xrotation 
	JOINT LHipJoint
	{
		OFFSET 0.000000 0.000000 0.000000
		CHANNELS 3 Zrotation Yrotation Xrotation
		JOINT LeftUpLeg
		{
			OFFSET 1.800000 -1.400000 0.085000
			CHANNELS 3 Zrotation Yrotation Xrotation
			JOINT LeftLeg
			{
				OFFSET 2.215000 -6.000000 0.000000
				CHANNELS 3 Zrotation Yrotation Xrotation
				JOINT LeftFoot
				{
					OFFSET 2.500000 -6.900000 0.000000
					CHANNELS 3 Zrotation Yrotation Xrotation
					JOINT LeftToeBase
					{
						OFFSET 0.200000 -0.500000 1.950000
						CHANNELS 3 Zrotation Yrotation Xrotation
						End Site
						{
							OFFSET 0.000000 0.000000 0.000000
						}
					}
				}
			}
		}
	}
	JOINT RHipJoint
	{
		OFFSET 0.000000 0.000000 0.000000
		CHANNELS 3 Zrotation Yrotation Xrotation
		JOINT RightUpLeg
		{
			OFFSET -1.800000 -1.400000 0.085000
			CHANNELS 3 Zrotation Yrotation Xrotation
			JOINT RightLeg
			{
				OFFSET -2.215000 -6.000000 0.000000
				CHANNELS 3 Zrotation Yrotation Xrotation
				JOINT RightFoot
				{
					OFFSET -2.500000 -6.900000 0.000000
					CHANNELS 3 Zrotation Yrotation Xrotation
					JOINT RightToeBase
					{
						OFFSET -0.200000 -0.500000 1.950000
						CHANNELS 3 Zrotation Yrotation Xrotation
						End Site
						{
							OFFSET 0.000000 0.000000 0.000000
						}
					}
				}
			}
		}
	}
	JOINT LowerBack
	{
		OFFSET 0.000000 0.000000 0.000000
		CHANNELS 3 Zrotation Yrotation Xrotation
		JOINT Spine
		{
			OFFSET -0.087000 1.940000 -0.288900
			CHANNELS 3 Zrotation Yrotation Xrotation
			JOINT Spine1
			{
				OFFSET 0.000000 1.950000 0.060000
				CHANNELS 3 Zrotation Yrotation Xrotation
				JOINT Neck
				{
					OFFSET 0.000000 0.000000 0.000000
					CHANNELS 3 Zrotation Yrotation Xrotation
					JOINT Neck1
					{
						OFFSET 0.000000 1.600000 0.340000
						CHANNELS 3 Zrotation Yrotation Xrotation
						JOINT Head
						{
							OFFSET 0.000000 1.667000 -0.240000
							CHANNELS 3 Zrotation Yrotation Xrotation
							End Site
							{
								OFFSET 0.000000 0.000000 0.000000
							}
						}
					}
				}
				JOINT LeftShoulder
				{
					OFFSET 0.000000 0.000000 0.000000
					CHANNELS 3 Zrotation Yrotation Xrotation
					JOINT LeftArm
					{
						OFFSET 2.700000 1.550000 -0.730000
						CHANNELS 3 Zrotation Yrotation Xrotation
						JOINT LeftForeArm
						{
							OFFSET 5.450000 0.000000 0.000000
							CHANNELS 3 Zrotation Yrotation Xrotation
							JOINT LeftHand
							{
								OFFSET 3.450000 0.000000 0.000000
								CHANNELS 3 Zrotation Yrotation Xrotation
								JOINT LeftHandIndex1
								{
									OFFSET 0.750000 0.000000 0.000000
									CHANNELS 3 Zrotation Yrotation Xrotation
									End Site
									{
										OFFSET 0.000000 0.000000 0.000000
									}
								}
							}
						}
					}
				}
				JOINT RightShoulder
				{
					OFFSET 0.000000 0.000000 0.000000
					CHANNELS 3 Zrotation Yrotation Xrotation
					JOINT RightArm
					{
						OFFSET -2.700000 1.550000 -0.730000
						CHANNELS 3 Zrotation Yrotation Xrotation
						JOINT RightForeArm
						{
							OFFSET -5.450000 0.000000 0.000000
							CHANNELS 3 Zrotation Yrotation Xrotation
							JOINT RightHand
							{
								OFFSET -3.450000 0.000000 0.000000
								CHANNELS 3 Zrotation Yrotation Xrotation
								JOINT RightHandIndex1
								{
									OFFSET -0.750000 0.000000 0.000000
									CHANNELS 3 Zrotation Yrotation Xrotation
									End Site
									{
										OFFSET 0.000000 0.000000 0.000000
									}
								}
							}
						}
					}
				}
			}
		}
	}
}
MOTION
Frames: 13
Frame Time: 0.016667
0.379250 17.246650 -0.627920 -4.576210 -4.144592 8.852262 -15.376693 12.691233 2.864371 0.291367 -0.924863 -8.596494 -9.723613 4.170574 3.246909 -1.630057 5.909133 3.388316 0.006910 -0.651700 -0.492890 18.172792 -10.361393 2.465970 -22.668236 1.469221 -11.860442 1.868343 -4.444303 0.511009 -0.425382 -5.081631 2.634226 0.192900 2.177070 1.380590 -3.183503 -1.672488 -6.570790 1.330759 3.426865 -0.401537 5.918995 1.504162 9.478369 1.343031 2.697363 -8.157987 4.618595 4.753329 16.845892 -9.531730 3.549700 -5.092880 -14.078152 -6.021292 3.406141 -4.208114 3.259489 2.864602 2.485898 -10.335073 -2.342571 -5.285140 2.553121 0.902480 1.496970 -0.407340 0.862490 12.479586 4.150183 3.808796 6.837570 1.861559 -1.022219 2.620595 16.353022 -0.249751 1.081494 -1.484850 -0.974200 0.848110 0.662190 0.042940 
0.375280 17.244010 -0.624070 -4.515734 -3.984291 8.925646 -15.378191 12.680897 2.863112 0.264699 -0.943901 -8.665805 -9.814466 4.173833 3.201627 -1.644172 5.918760 3.377699 0.017680 -0.634010 -0.485730 18.174913 -10.339982 2.468439 -22.940947 1.483683 -11.863341 1.768652 -4.419678 0.422376 -0.423247 -5.105603 2.615557 0.213800 2.176940 1.378540 -3.186913 -1.695970 -6.564192 1.139791 3.404619 -0.586957 5.995661 1.462396 9.632559 1.291937 2.748528 -8.140139 4.705265 4.804361 16.581127 -9.479070 3.509050 -5.109270 -13.754518 -5.926819 3.370368 -3.753609 3.099517 2.994855 2.316388 -9.996830 -2.345215 -5.304336 2.561356 0.885990 1.505600 -0.417840 0.855770 12.255269 3.984495 3.756591 6.558588 1.701253 -0.953470 2.539486 16.536170 -0.279208 1.067508 -1.501995 -0.973570 0.850010 0.665830 0.038980 
0.367610 17.240060 -0.615730 -4.443264 -3.815955 8.974940 -15.381581 12.670303 2.858714 0.329956 -0.932151 -8.644360 -9.983720 4.195306 3.112188 -1.652417 5.951669 3.363579 0.017190 -0.628550 -0.487290 18.175438 -10.303941 2.480296 -23.362416 1.502506 -11.777870 1.653328 -4.400477 0.202494 -0.425713 -5.147772 2.591495 0.227670 2.184490 1.379240 -3.185860 -1.740285 -6.565257 0.896138 3.379007 -0.791163 6.160263 1.398360 9.872907 1.197509 2.755725 -8.193436 4.715424 4.811450 16.363976 -9.503940 3.437420 -5.117700 -13.185828 -5.852666 3.389539 -3.102875 3.024908 3.148382 1.968251 -9.538132 -2.343949 -5.327512 2.559297 0.873730 1.517100 -0.426580 0.849900 11.867289 3.858428 3.774484 6.009391 1.353776 -0.898028 2.241568 16.669748 -0.316552 1.053185 -1.512204 -0.977300 0.856760 0.674900 0.037790 
0.359870 17.234780 -0.609240 -4.427565 -3.655900 9.056528 -15.382142 12.658171 2.850851 0.442480 -0.918637 -8.643454 -10.089255 4.195599 2.970688 -1.663241 5.987442 3.356127 0.012400 -0.621700 -0.506110 18.178952 -10.268681 2.494408 -23.768964 1.526586 -11.756887 1.573919 -4.382087 -0.011091 -0.423208 -5.196260 2.574672 0.245960 2.212810 1.382170 -3.193281 -1.778215 -6.564717 0.733123 3.349805 -1.035711 6.324134 1.326755 10.175686 1.077704 2.749550 -8.266445 4.712065 4.801614 16.024969 -9.464690 3.247930 -5.000790 -12.571652 -5.799523 3.435253 -2.311020 3.069368 3.323921 1.732110 -9.133052 -2.352060 -5.363750 2.554765 0.851160 1.543530 -0.444940 0.852980 11.480370 3.747075 3.806910 5.151852 0.630954 -0.863619 1.945567 17.377567 -0.328077 1.017087 -1.532575 -0.983160 0.874710 0.689250 0.045180 
0.356040 17.232210 -0.604300 -4.486789 -3.550176 9.024829 -15.382231 12.653084 2.842596 0.589174 -0.887745 -8.537710 -10.142851 4.205628 2.893873 -1.661783 6.014601 3.345732 0.011420 -0.624650 -0.510460 18.180164 -10.248856 2.506144 -24.130048 1.534240 -11.716890 1.489872 -4.381312 -0.137624 -0.427347 -5.223413 2.562886 0.247280 2.217860 1.386550 -3.196801 -1.800214 -6.571065 0.747489 3.346376 -1.128387 6.389939 1.299390 10.413333 1.014591 2.724679 -8.342939 4.671757 4.731018 15.937815 -9.384380 3.074000 -5.061360 -12.136475 -5.818401 3.470927 -1.293230 3.302538 3.439165 1.450937 -9.091927 -2.341545 -5.370961 2.563226 0.846860 1.547730 -0.449040 0.850670 11.161837 3.725180 3.899257 4.129452 -0.292225 -0.886120 1.657111 18.183284 -0.292948 0.990927 -1.547457 -0.980620 0.878640 0.698880 0.045010 
0.351850 17.230040 -0.603150 -4.580600 -3.566556 8.973147 -15.381486 12.644609 2.837550 0.788260 -0.849572 -8.427034 -10.300800 4.234613 2.803817 -1.647915 6.051920 3.332909 -0.001750 -0.643370 -0.525760 18.181349 -10.230918 2.521017 -24.436252 1.541068 -11.741748 1.505093 -4.398524 -0.250020 -0.434304 -5.240100 2.552193 0.232780 2.226450 1.397580 -3.200688 -1.808908 -6.584431 0.828380 3.336417 -1.151354 6.380943 1.270704 10.609304 0.999901 2.721357 -8.446600 4.654656 4.770876 16.005685 -9.217180 3.012890 -5.130280 -11.633747 -5.845506 3.557357 -0.389232 3.710592 3.511493 1.269177 -9.111968 -2.336357 -5.374703 2.572309 0.850240 1.548040 -0.447440 0.848590 10.683369 3.705314 3.972282 3.259101 -0.898497 -0.906018 1.437702 18.754716 -0.234312 0.976415 -1.549416 -0.975600 0.879060 0.715630 0.048980 
0.347490 17.230460 -0.603370 -4.630114 -3.538840 8.852444 -15.385599 12.644180 2.834797 0.882207 -0.813389 -8.280143 -10.286847 4.228263 2.671342 -1.640366 6.066578 3.325027 -0.024160 -0.677800 -0.533480 18.177339 -10.215612 2.532171 -24.737639 1.525458 -11.698552 1.593543 -4.443005 -0.292730 -0.437651 -5.250872 2.542743 0.207200 2.222920 1.398200 -3.189693 -1.830895 -6.599699 0.815379 3.317960 -1.104157 6.368306 1.237773 10.736584 1.044379 2.802657 -8.525084 4.762676 4.712684 16.280264 -9.134910 3.010300 -5.230180 -11.292880 -5.919721 3.616219 0.614770 4.010711 3.570469 1.207460 -8.982129 -2.333981 -5.371366 2.569106 0.865480 1.537680 -0.444280 0.834330 10.253138 3.677241 4.040899 2.396569 -1.503242 -0.959564 1.161924 19.348929 -0.160705 0.969508 -1.540056 -0.977960 0.877110 0.735040 0.043180 
0.342210 17.233540 -0.602650 -4.651889 -3.562665 8.659223 -15.390415 12.655781 2.833877 0.930537 -0.748977 -8.045783 -10.192234 4.216133 2.544779 -1.612597 6.069749 3.326629 -0.049390 -0.709880 -0.551390 18.171517 -10.214194 2.531078 -24.893899 1.499159 -11.606917 1.471018 -4.462049 -0.296062 -0.440159 -5.249515 2.548471 0.176920 2.222240 1.400030 -3.174039 -1.854770 -6.610592 0.786559 3.299567 -1.039041 6.383796 1.204553 10.847185 1.074050 2.847212 -8.598285 4.803311 4.662138 16.674819 -9.020110 3.031250 -5.160980 -10.981289 -6.000049 3.688038 1.485246 4.246810 3.600065 1.148711 -8.739339 -2.318949 -5.362985 2.569080 0.872620 1.528260 -0.437790 0.830370 9.883874 3.696441 4.108499 1.448497 -2.211475 -1.017823 0.972004 20.123904 -0.061333 0.968019 -1.536720 -0.973010 0.871880 0.746230 0.047780 
0.337030 17.237220 -0.602420 -4.718886 -3.489056 8.537680 -15.391259 12.672394 2.824761 1.050279 -0.726886 -8.004320 -10.097234 4.232694 2.665501 -1.606411 6.077975 3.331730 -0.067610 -0.734890 -0.569730 18.167720 -10.218159 2.532675 -24.943816 1.481708 -11.525186 1.424061 -4.480871 -0.303995 -0.437965 -5.256794 2.560288 0.158850 2.234610 1.399690 -3.166768 -1.875747 -6.614999 0.887747 3.239531 -0.994018 6.336835 1.152671 10.920982 1.084636 2.795115 -8.640647 4.699216 4.599877 16.887705 -9.019810 2.971250 -4.996880 -10.752306 -6.040873 3.719538 2.240096 4.352849 3.649400 1.347731 -8.430920 -2.326236 -5.366065 2.559073 0.879040 1.531610 -0.442310 0.833790 9.633502 3.738389 4.166990 0.476133 -3.127476 -1.052841 0.860214 21.114291 0.025320 0.948530 -1.546472 -0.978410 0.876450 0.754920 0.050570 
0.329500 17.241150 -0.603170 -4.697420 -3.389860 8.428990 -15.397008 12.687021 2.819809 1.144959 -0.702871 -7.979761 -10.110781 4.266148 2.766790 -1.609754 6.083332 3.329916 -0.085740 -0.750190 -0.580730 18.160326 -10.209174 2.536807 -25.050858 1.456316 -11.384571 1.414516 -4.499197 -0.359579 -0.439725 -5.259601 2.565638 0.148850 2.233680 1.382690 -3.147531 -1.917290 -6.623015 0.823413 3.187674 -0.916501 6.352415 1.106145 10.944139 1.095443 2.767929 -8.637072 4.628892 4.524842 17.139838 -9.020200 2.924900 -5.200140 -10.540285 -5.987598 3.689657 2.866730 4.380758 3.668237 1.749582 -8.299761 -2.329659 -5.359111 2.530233 0.895130 1.521570 -0.439220 0.827210 9.402644 3.687357 4.190399 -0.250171 -3.733774 -1.092276 0.332440 21.633249 0.031561 0.941323 -1.533550 -0.992290 0.893060 0.764330 0.048090 
0.323340 17.246170 -0.604670 -4.697954 -3.284769 8.382800 -15.401065 12.692073 2.817404 1.349281 -0.704982 -8.011424 -10.316395 4.326587 2.870625 -1.613399 6.112645 3.319279 -0.080540 -0.752070 -0.574680 18.155444 -10.193559 2.543662 -25.082795 1.452655 -11.261811 1.419941 -4.496472 -0.483550 -0.446194 -5.267335 2.563991 0.147890 2.231250 1.377470 -3.134695 -1.953170 -6.631397 0.840272 3.122985 -0.864720 6.316658 1.067388 10.932450 1.087970 2.654449 -8.579353 4.427131 4.489780 17.239932 -8.923150 2.779970 -5.329630 -10.414239 -5.882654 3.612324 3.512059 4.384469 3.715308 2.102179 -8.180497 -2.346992 -5.350305 2.528813 0.908130 1.512710 -0.439160 0.826980 9.295074 3.655142 4.172501 -1.240311 -4.491216 -1.036824 0.323413 22.208263 0.081577 0.928895 -1.548370 -0.997790 0.898950 0.764630 0.043690 
0.315440 17.251890 -0.605850 -4.600197 -3.102434 8.350576 -15.411920 12.698630 2.817324 1.424694 -0.718755 -8.032708 -10.443326 4.354354 2.922200 -1.626677 6.127357 3.305919 -0.054920 -0.729160 -0.544100 18.146572 -10.165836 2.547747 -25.156085 1.446799 -11.092024 1.357503 -4.474292 -0.642967 -0.458963 -5.279644 2.548599 0.166290 2.210660 1.374030 -3.107090 -2.016434 -6.633905 0.612721 3.080860 -0.849072 6.405414 1.033347 10.856126 1.079847 2.625367 -8.407402 4.361212 4.397177 17.254172 -8.985190 2.677390 -5.632700 -10.496240 -5.719954 3.403259 4.380493 4.078536 3.803382 2.292946 -7.905487 -2.362776 -5.338924 2.537754 0.918040 1.499990 -0.430140 0.824010 9.403727 3.516018 4.082158 -2.235272 -5.171438 -0.927582 0.008207 22.552168 0.050873 0.920728 -1.574940 -0.998860 0.898740 0.751850 0.032830 
0.308700 17.252860 -0.607370 -4.518654 -2.958120 8.356586 -15.419359 12.702634 2.820219 1.479194 -0.716290 -8.040131 -10.544328 4.363356 2.859549 -1.656244 6.156298 3.299728 -0.050160 -0.720410 -0.540280 18.141465 -10.148760 2.541992 -25.241286 1.434308 -11.047149 1.326277 -4.473826 -0.657990 -0.454477 -5.294793 2.549296 0.187040 2.222540 1.362350 -3.089628 -2.060820 -6.629320 0.384924 3.075167 -0.908145 6.522294 1.022986 10.831455 1.067193 2.664630 -8.279136 4.417274 4.315879 17.158185 -9.121700 2.577160 -5.729520 -10.385237 -5.570607 3.220571 5.157227 3.728216 3.923028 2.091753 -7.626473 -2.372662 -5.352931 2.516841 0.922720 1.512010 -0.440540 0.825130 9.324574 3.329956 4.008121 -3.004310 -5.692696 -0.788612 -0.264302 22.604683 -0.003888 0.897199 -1.584950 -1.020830 0.922840 0.753820 0.025130 
